<svg xmlns="http://www.w3.org/2000/svg" viewBox="0 0 40 40">
    <circle cx="20" cy="20" r="20" style="fill:none" />
    <circle cx="20" cy="20" r="19.5" style="fill:none;stroke:#707070" />
    <rect x="16.7" y="27.94" width="6.05" height="6.05" rx="0.5" style="fill:#707070" />
    <path d="M10.84,13.19c1.06.83,2.29,1.87,3.32,2.64a.59.59,0,0,0,.87-.11c.47-.47,1.63-1.61,2.13-2a3.71,3.71,0,0,1,2.73-1c1.35,0,3.55.65,3.45,2.85s-2.93,3-4.28,4.08-2.37,1.73-2.4,3.74-.28,2.71,1.16,2.71,3.2,0,4.23,0,1-.95,1.13-1.53a5.17,5.17,0,0,1,2.52-2.73c1.67-1,4.41-3.44,4.4-6.27A7.65,7.65,0,0,0,26.5,9a10.18,10.18,0,0,0-6.61-2,10.77,10.77,0,0,0-9.29,5.12A.85.85,0,0,0,10.84,13.19Z" style="fill:#707070" />
</svg>