<svg xmlns="http://www.w3.org/2000/svg" viewBox="0 0 45 45">
    <path d="M36.64,8.35a20,20,0,1,0,0,28.29A20,20,0,0,0,36.64,8.35ZM34.16,19.57,20.72,33h0a1.35,1.35,0,0,1-1.91,0L9.67,23.89a1.36,1.36,0,0,1,0-1.92l2.4-2.4a1.33,1.33,0,0,1,1-.4,1.37,1.37,0,0,1,1,.4l5.75,5.76L29.84,15.24a1.36,1.36,0,0,1,1.92,0l2.4,2.4A1.37,1.37,0,0,1,34.16,19.57Z" style="fill:#dddddd" />
    <path d="M31.76,15.24a1.36,1.36,0,0,0-1.92,0L19.75,25.33,14,19.57a1.37,1.37,0,0,0-1-.4,1.33,1.33,0,0,0-1,.4L9.67,22a1.36,1.36,0,0,0,0,1.92L18.8,33a1.35,1.35,0,0,0,1.91,0h0L34.16,19.57a1.37,1.37,0,0,0,0-1.93Z" style="fill:#ffffff" />
</svg>