<svg xmlns="http://www.w3.org/2000/svg" viewBox="0 0 50 50">
    <path d="M26.1,15.43a9.9,9.9,0,0,0,4.48-.92.1.1,0,0,1,.12,0l12.82,6.68a.13.13,0,0,1,0,.16c-1,2.24-2,4.55-2.93,6.79,0,.07-.15.07-.22.07l-4-.54a.12.12,0,0,0-.14.11h0v19a.12.12,0,0,1-.12.12H15.65a.12.12,0,0,1-.12-.12V27.71a.26.26,0,0,0-.15-.07l-4,.56H11.3c-.39-.18-.53-.92-.67-1.2-.84-1.81-1.53-3.7-2.36-5.58a.12.12,0,0,1,.05-.16L21.14,14.5a.1.1,0,0,1,.12,0C22.24,15.18,24.83,15.43,26.1,15.43Zm4.7-.2a4.83,4.83,0,0,1-4.68,2.93,5.54,5.54,0,0,1-5-2.88,10.5,10.5,0,0,0,5,1.09,8,8,0,0,0,4.66-1.15Z" style="fill:red;fill-rule:evenodd" />
    <path d="M48.11,39.41c-4,.35-4.64,1-5,5a.11.11,0,1,1-.22,0c-.36-4-1-4.64-5-5a.12.12,0,0,1-.11-.13.13.13,0,0,1,.11-.1c4-.35,4.63-1,5-5a.11.11,0,0,1,.22,0c.36,4,1,4.64,5,5a.12.12,0,0,1,.1.13A.13.13,0,0,1,48.11,39.41Z" style="fill:red" />
    <path d="M18.29,11.59c-6.39.56-7.42,1.6-8,8a.18.18,0,0,1-.36,0c-.57-6.38-1.6-7.42-8-8a.19.19,0,0,1,0-.37c6.39-.57,7.42-1.6,8-8a.18.18,0,0,1,.36,0c.57,6.38,1.6,7.41,8,8a.19.19,0,0,1,0,.37Z" style="fill:red" /></svg>