<svg xmlns="http://www.w3.org/2000/svg" viewBox="0 0 50 50">
    <circle cx="25" cy="27.41" r="7.29" style="fill:red" />
    <path d="M42.57,14.34h-9.1a1.42,1.42,0,0,1-1.13-.57L29.43,10a1.42,1.42,0,0,0-1.14-.57H21.68a1.39,1.39,0,0,0-1.13.57l-2.89,3.81a1.4,1.4,0,0,1-1.13.57H7.45A1.4,1.4,0,0,0,6,15.73H6V39.2a1.4,1.4,0,0,0,1.38,1.41H42.55A1.4,1.4,0,0,0,44,39.23h0V15.75A1.4,1.4,0,0,0,42.57,14.34ZM25,36.67a9.26,9.26,0,1,1,9.26-9.26A9.27,9.27,0,0,1,25,36.67ZM41.75,19a1.43,1.43,0,0,1-.83.84,1.58,1.58,0,0,1-2.06-2.06,1.52,1.52,0,0,1,.83-.84A1.58,1.58,0,0,1,41.75,19Z" style="fill:red" /></svg>