<svg xmlns="http://www.w3.org/2000/svg" viewBox="0 0 50 50">
    <path d="M25,1C22.77,1,2.14,19.29,2.14,19.29V44.43A4.58,4.58,0,0,0,6.71,49H43.29a4.58,4.58,0,0,0,4.57-4.57V19.29S27.12,1,25,1Zm0,2.47c1,.62,3.85,2.6,11.4,9C40.3,15.72,44,19,45.57,20.32v.11L25,32.8,4.77,20c1.7-1.49,5.15-4.5,8.81-7.59C21.13,6.05,24,4.08,25,3.47Zm18.3,43.24H6.71a2.28,2.28,0,0,1-2.28-2.28V22.5l20,12.61a1.14,1.14,0,0,0,.61.18,1.15,1.15,0,0,0,.59-.17l20-11.92V44.43A2.28,2.28,0,0,1,43.29,46.71Z" style="fill:#999" /></svg>