<?xml version="1.0" standalone="no"?>
<!DOCTYPE svg PUBLIC "-//W3C//DTD SVG 20010904//EN"
 "http://www.w3.org/TR/2001/REC-SVG-20010904/DTD/svg10.dtd">
<svg version="1.0" xmlns="http://www.w3.org/2000/svg"
 width="500.000000pt" height="500.000000pt" viewBox="0 0 500.000000 500.000000"
 preserveAspectRatio="xMidYMid meet">
<metadata>
Created by potrace 1.11, written by Peter Selinger 2001-2013
</metadata>
<g transform="translate(0.000000,500.000000) scale(0.100000,-0.100000)"
fill="#000000" stroke="none">
<path d="M2602 4213 c-50 -82 -95 -153 -100 -158 -5 -6 -11 -16 -13 -21 -16
-41 -195 -311 -203 -307 -6 2 -39 39 -74 81 -34 42 -75 91 -90 108 -15 17 -38
45 -52 61 -14 16 -81 95 -149 176 l-125 146 -30 -16 c-17 -9 -157 -88 -311
-176 -154 -88 -293 -168 -310 -177 -16 -10 -54 -31 -83 -49 -29 -17 -55 -31
-57 -31 -2 0 -45 -25 -96 -55 -50 -30 -93 -55 -95 -55 -2 0 -27 -14 -56 -31
-29 -18 -66 -39 -83 -49 -264 -150 -392 -224 -400 -231 -5 -6 108 -127 299
-318 169 -170 304 -311 299 -314 -5 -3 -45 -10 -89 -16 -44 -7 -89 -13 -100
-15 -10 -2 -39 -7 -64 -10 -25 -3 -56 -8 -70 -10 -14 -2 -46 -7 -71 -10 -48
-7 -86 -13 -129 -21 -14 -3 -47 -7 -75 -10 -69 -9 -85 -14 -85 -30 0 -16 12
-20 412 -156 l308 -104 0 -707 c0 -413 4 -709 9 -712 8 -5 1089 -402 1116
-410 6 -2 23 -8 38 -14 16 -7 32 -12 37 -12 5 0 24 -6 42 -14 18 -8 83 -33
143 -55 61 -22 178 -64 260 -94 83 -30 166 -60 186 -67 l37 -13 73 64 c41 35
76 66 79 69 3 3 50 43 105 90 55 47 105 89 111 95 6 5 40 35 74 65 35 30 68
59 74 65 9 8 431 370 525 450 12 11 33 29 45 40 12 11 46 40 76 65 29 25 61
53 71 63 16 18 17 64 17 664 0 354 1 645 3 647 5 4 508 422 534 445 11 9 71
58 132 109 109 90 134 122 94 122 -10 0 -104 -21 -207 -46 -104 -25 -200 -48
-214 -50 -14 -3 -32 -7 -40 -10 -8 -3 -26 -8 -40 -10 -14 -3 -59 -13 -100 -23
-124 -31 -130 -32 -130 -22 0 6 33 65 74 133 203 341 309 522 313 538 3 12 -2
20 -14 24 -20 6 -302 81 -458 122 -261 69 -323 88 -368 112 l-49 26 6 72 c4
50 2 75 -6 80 -6 4 -31 -14 -60 -44 -27 -29 -55 -52 -63 -52 -7 0 -32 9 -56
20 -24 11 -52 20 -61 20 -21 0 -24 -30 -5 -49 10 -11 8 -12 -8 -7 -29 8 -124
33 -250 66 -60 16 -162 43 -225 59 -63 17 -120 31 -126 31 -6 0 -52 -66 -102
-147z"/>
</g>
</svg>
