<svg xmlns="http://www.w3.org/2000/svg" viewBox="0 0 375.4 27">
    <path d="M249.51,15.08c-1.76,1.48-2.55,2.66-2.55,3.86,0,1.82,2,2.6,6.78,2.6a28.84,28.84,0,0,0,8.79-1.2l.31,3.84a8.82,8.82,0,0,0-1.23.11,45.54,45.54,0,0,1-7.56.64,20.18,20.18,0,0,1-7-.92c-2.41-1-3.59-2.49-3.59-4.68s1.1-4,3.62-6.1ZM245.26,3.57a36.87,36.87,0,0,0,8.4.7,34.91,34.91,0,0,0,7.39-.53l.11,3.16a51,51,0,0,0-7.48,4.62l-2.43-1.93C253,8.47,253.32,8.27,254,7.88l.73-.45a5.13,5.13,0,0,0,.61-.33,31.11,31.11,0,0,1-4.2.22A43.3,43.3,0,0,1,246,7l-.64-.05c-.06,0-.2,0-.4,0ZM260,9.78A18.17,18.17,0,0,1,263,13.9l-2,1a19,19,0,0,0-2.94-4.18Zm4.34,3.39a20.49,20.49,0,0,0-2.86-4.06l1.88-1a16.21,16.21,0,0,1,2.91,3.95Z" style="fill:#333" />
    <path d="M273.09,5.84c-1.82.36-2.41.44-4.09.7a10.58,10.58,0,0,0-1-2.69c4.62-.48,9.05-1.57,10.78-2.69l1.82,2.58c-2,.7-3.3,1.09-4.53,1.42V8.78h2.24a13.85,13.85,0,0,0,2.35-.14v3a14.86,14.86,0,0,0-2.41-.14h-2a16.64,16.64,0,0,0,4.48,5.23,13.19,13.19,0,0,0-1.49,2.75,15.55,15.55,0,0,1-3.27-4.48c.08.95.14,2.1.14,3.53v4.87A23.17,23.17,0,0,0,276.2,27h-3.34a24.3,24.3,0,0,0,.2-3.55V18.77c0-1.12.06-2.41.14-3.36a20.64,20.64,0,0,1-1.9,3.95,19.74,19.74,0,0,1-2.44,3.08,14.58,14.58,0,0,0-1.57-2.94,16.76,16.76,0,0,0,3-3.75,35.05,35.05,0,0,0,2.19-4.2h-2a15.68,15.68,0,0,0-2.57.17V8.61a13,13,0,0,0,2.63.17h2.52ZM285.41,3.2a21.33,21.33,0,0,0-.17,3.39V17.18a23.63,23.63,0,0,0,.14,3.33h-3.3a21.77,21.77,0,0,0,.14-3.28V6.59a21.94,21.94,0,0,0-.17-3.39Zm6.66-1.68a29.5,29.5,0,0,0-.19,3.81v18c0,1.48-.37,2.29-1.26,2.77-.68.36-1.63.47-3.9.47-.7,0-1.12,0-2.07,0a12.41,12.41,0,0,0-.95-3.11,34.33,34.33,0,0,0,3.7.25c1.23,0,1.42-.11,1.42-.84V5.33c0-1.4-.05-2.57-.16-3.81Z" style="fill:#333" />
    <path d="M300.22,18.16A18.68,18.68,0,0,1,297.36,27a16.77,16.77,0,0,0-2.71-2.21,12.7,12.7,0,0,0,2-4.73,27.88,27.88,0,0,0,.56-4.28c.14-2.35.25-6.33.25-9.64a35.89,35.89,0,0,0-.14-4.06,31.1,31.1,0,0,0,3.22.12h15.71a29.07,29.07,0,0,0,3.22-.12c-.08,1-.11,1.66-.11,3.17V23.64c0,2.33-.84,2.92-4,2.92-.87,0-2.3-.06-3.14-.12a11.3,11.3,0,0,0-.78-2.91c1.4.14,2.63.23,3.53.23,1.14,0,1.4-.12,1.4-.7v-4.9h-6.72v4.59a23.3,23.3,0,0,0,.14,3.33h-3.31a23.25,23.25,0,0,0,.17-3.3V18.16Zm6.44-6.61h-6.19c0,.81,0,1.37,0,1.76,0,1.32,0,1.51,0,2.07h6.24Zm0-6.41h-6.1V8l0,.78h6.13Zm9.72,3.66V5.14h-6.72V8.8Zm0,6.58V11.55h-6.72v3.83Z" style="fill:#333" />
    <path d="M334.52,18.13c-1.6,3.61-3.39,5.26-5.68,5.26-3.2,0-5.49-3.25-5.49-7.75a12,12,0,0,1,3.08-8.15,12.54,12.54,0,0,1,9.63-3.92c6.72,0,11.09,4.09,11.09,10.39a10.79,10.79,0,0,1-6.81,10.44A18.37,18.37,0,0,1,336,25.58a8.94,8.94,0,0,0-1.71-3.28,14.63,14.63,0,0,0,5.57-1.54,7.83,7.83,0,0,0,3.9-7,7,7,0,0,0-3.45-6.22,6.29,6.29,0,0,0-2.83-.84A40.41,40.41,0,0,1,334.52,18.13Zm-4.12-10a9.38,9.38,0,0,0-3.8,7.56c0,2.3,1,4.12,2.21,4.12.92,0,1.87-1.18,2.88-3.58A36.8,36.8,0,0,0,334,6.73,7.18,7.18,0,0,0,330.4,8.1Z" style="fill:#333" />
    <path d="M360.92,3.51a11.26,11.26,0,0,0-.19-2.32h3.61a12.73,12.73,0,0,0-.17,2.32V5.22h7.7A23.47,23.47,0,0,0,375.4,5V8.41A25.27,25.27,0,0,0,372,8.24H361.74c-.14,2.1-.14,2.19-.23,3h7.76a17.79,17.79,0,0,0,2.88-.14.67.67,0,0,1,0,.28c-.05.42-.05.75-.11,2a54.88,54.88,0,0,1-.95,9.83c-.64,2.66-1.57,3.36-4.37,3.36-1,0-1.62,0-3.78-.2a9,9,0,0,0-.81-3.25,26.86,26.86,0,0,0,4.2.37c1.23,0,1.51-.31,1.88-2.24a41.65,41.65,0,0,0,.61-7h-7.73c-1.17,5.63-3.69,9.21-9,12.68a7.88,7.88,0,0,0-2.27-2.66,18.15,18.15,0,0,0,5-4.14c2.41-2.89,3.36-6.13,3.5-11.85h-4.59a30.82,30.82,0,0,0-3.5.17V5a24.86,24.86,0,0,0,3.5.2h7.19Z" style="fill:#333" />
    <polygon points="149.52 4.21 153.15 1.07 153.15 0.61 135.76 0.61 132.2 10.59 128.57 0.61 111.4 0.61 111.4 1.07 115.03 4.21 115.03 21.51 111.4 24.65 111.4 25.04 125.1 25.04 125.1 24.65 121.93 21.51 121.93 7.67 128.57 25.04 132.81 25.04 139.51 7.67 139.51 21.51 136.34 24.65 136.34 25.04 153.15 25.04 153.15 24.65 149.52 21.51 149.52 4.21" />
    <path d="M166,0c-7.85,0-13.48,4.86-13.48,12.83S158.14,25.65,166,25.65s13.5-4.86,13.5-12.82S173.85,0,166,0Zm3.07,14.74c0,4.66-1.39,6-3.07,6s-3.08-1.33-3.08-6V10.91c0-4.63,1.36-6,3.08-6s3.07,1.33,3.07,6Z" />
    <polygon points="207.67 4.18 211.3 1.04 211.3 0.61 197.11 0.61 197.11 1.04 200.74 4.18 200.74 12.5 190.9 0.61 178.91 0.61 178.91 1.04 182.51 4.18 182.51 21.51 178.91 24.65 178.91 25.04 193.1 25.04 193.1 24.65 189.47 21.51 189.47 13.15 199.32 25.04 209.91 25.04 209.91 24.65 207.67 21.7 207.67 4.18" />
    <path d="M223.94,0c-7.84,0-13.47,4.86-13.47,12.83s5.63,12.82,13.47,12.82,13.5-4.86,13.5-12.82S231.81,0,223.94,0ZM227,14.74c0,4.66-1.39,6-3.07,6s-3.08-1.33-3.08-6V10.91c0-4.63,1.36-6,3.08-6s3.07,1.33,3.07,6Z" />
    <path d="M20,9.2a5.9,5.9,0,0,0-5.21,2.43A4.54,4.54,0,0,0,10.69,9.2a5.51,5.51,0,0,0-5,2.45H5.62V9.59H0V25.11H5.83v-8.4c0-1.62.5-2.78,2-2.78,1.76,0,1.91,1.31,1.91,2.78v8.4h5.83v-8.4c0-1.62.5-2.78,2-2.78,1.76,0,1.91,1.31,1.91,2.78v8.4h5.83V14.47C25.27,12,24,9.2,20,9.2Z" style="fill:red" />
    <rect x="26.2" y="3.76" width="5.83" height="5.92" style="fill:red" />
    <rect x="26.2" y="11.55" width="5.83" height="13.56" style="fill:red" />
    <rect x="50.38" y="3.76" width="5.83" height="5.92" style="fill:red" />
    <rect x="50.38" y="11.55" width="5.83" height="13.56" style="fill:red" />
    <path d="M44.07,9.2a5.58,5.58,0,0,0-5,2.36H39v-2H33.41V25.11h5.83V16.92c0-2.49,1.33-3,2.33-3,1.71,0,1.92,1.25,1.92,3.05v8.13h5.83V14.47A5,5,0,0,0,44.07,9.2Z" style="fill:red" />
    <polygon points="71.58 9.65 68.22 9.65 61.27 16.41 61.27 3.76 58.76 3.76 58.76 25.11 61.27 25.11 61.27 19.25 63.63 17.04 68.84 25.11 72.02 25.11 65.54 15.27 71.58 9.65" style="fill:red" />
    <path d="M82.39,18.38c0,2.78-1.47,4.85-4.5,4.85a2.9,2.9,0,0,1-3.1-3.12V9.65h-2.5V19.82c0,3.32,1.23,5.65,5.24,5.65a5.29,5.29,0,0,0,5-2.81h.06v2.45h2.35V9.65h-2.5Z" style="fill:red" />
    <path d="M88.61,12.91h-.06V9.65H86.19V25.11h2.5V18.23c0-3.92,1.48-6.25,5.51-6.25V9.29C91.49,9.2,89.81,10.43,88.61,12.91Z" style="fill:red" />
    <path d="M107.78,23.23c-.79,0-.79-.54-.79-1.74V13.54c0-3.62-3-4.25-5.71-4.25-3.39,0-6.31,1.35-6.46,5.18h2.51c.12-2.28,1.68-2.93,3.8-2.93,1.59,0,3.38.35,3.38,2.57,0,1.91-2.35,1.73-5.12,2.27-2.59.51-5.15,1.25-5.15,4.76,0,3.07,2.26,4.33,5,4.33a6.72,6.72,0,0,0,5.36-2.39c0,1.67.83,2.39,2.12,2.39a3.32,3.32,0,0,0,1.8-.42v-2A2.11,2.11,0,0,1,107.78,23.23Zm-3.3-3.5c0,1.41-1.35,3.5-4.65,3.5-1.53,0-2.94-.6-2.94-2.28,0-1.88,1.41-2.48,3.06-2.78s3.56-.33,4.53-1Z" style="fill:red" /></svg>