<svg viewBox="0 0 920 80" xmlns="http://www.w3.org/2000/svg"><path d="m405.64 28.2h-16.09c.72-1.36 1.58-2.8 2-3.87 1-.3 1.79-.44 1.79-1s-1.44-1.36-1.87-1.51l-7.4-2.8c-2.86 8.62-9.54 19.31-19.81 27.58l7.11 4.88a100 100 0 0 0 13.64-16h18.38a57.29 57.29 0 0 1 -9.47 18.89 62.64 62.64 0 0 1 -22.48 18.74l7.82 5.39a69.73 69.73 0 0 0 19.46-17c7-9.05 10.2-17.38 12.79-24.34a7.49 7.49 0 0 1 3.08-3.45l-5.81-6.82a7.34 7.34 0 0 1 -3.14 1.31z"/><path d="m468.72 20.52-9.19-.5c.35 5.74.5 15.72.5 17.45 0 21.68-6.18 28.5-20.9 34.31l6.25 7c7.46-3.81 16.8-9.12 21-21.83 2.31-7 2.45-12.63 2.45-26.64 0-.71-.14-3.94-.08-4.59 0-2 0-2.23.94-3.16.72-.57.79-.87.79-1.08.03-.89-1.41-.96-1.76-.96z"/><path d="m440.63 22c0-.65-1.29-.72-1.86-.79l-8.54-.72v33.92h8.54v-30.3c0-.22.07-.29 1.15-1.08.28-.28.71-.65.71-1.03z"/><path d="m482.4 44.29h51.05v9.11h-51.05z"/><path d="m553.43 27.98h38.85v8.55h-38.85z"/><path d="m545.75 61.16h53.93v8.55h-53.93z"/><path d="m631.57 31.22a66.86 66.86 0 0 0 -15.07-8.9l-4.39 6.75a64.75 64.75 0 0 1 14.73 9z"/><path d="m639.76 53.48a67.14 67.14 0 0 1 -26.63 12.41l5 8.63c.5.93 1.15 1.36 1.58 1.36s.72-1.22 1.08-2.23c8.9-3.8 15.72-6.82 27.07-16a101.29 101.29 0 0 0 17.88-19l-5-7.17c-3.1 4.33-9.99 13.81-20.98 22z"/><path d="m727 15.21-3.66 2.94a31.83 31.83 0 0 1 6.38 7l3.67-2.94a30.73 30.73 0 0 0 -6.39-7z"/><path d="m719.41 25.11 3.67-2.94a29.15 29.15 0 0 0 -6.18-6l-3.74 2.94a29.35 29.35 0 0 1 6.25 6z"/><path d="m717.69 28.42h-16.08c.78-1.15 1.65-3 2.44-4 1.21-.44 1.65-.58 1.65-1 0-.64-1.29-1.22-1.87-1.5l-7.19-3.23c-3.07 9.11-10.26 19.53-20.45 27.71l7.1 5.1a97.87 97.87 0 0 0 13.79-15.8h18.38a58 58 0 0 1 -9.19 18 61.82 61.82 0 0 1 -23 19l7.89 5.6a73.12 73.12 0 0 0 19.64-17c7.11-8.9 9.76-16.22 12.21-22.68a10.25 10.25 0 0 1 3.8-4.24l-6-7a5.8 5.8 0 0 1 -3.12 1.04z"/><path d="m772.49 31.87c7.18 8.9 14.22 25.13 16.73 36.76l9-4.1c-4.05-13.43-11.87-28.53-18.22-36.9z"/><path d="m793.89 20.81a6.82 6.82 0 0 0 -6.75 6.89 6.79 6.79 0 1 0 6.75-6.89zm0 11a4.06 4.06 0 0 1 -3.89-4.11 4 4 0 1 1 8 0 4.08 4.08 0 0 1 -4.11 4.1z"/><path d="m761.08 30.21-8.68-1.93c-2.31 13.28-8.34 28.28-18.25 39l9.12 3.58c3.3-4.45 10.41-14 15.66-31.67.29-.92 1.43-5.81 1.72-6.09s1.51-.94 1.72-1.16.43-.28.43-.57c0-.72-1.51-1.09-1.72-1.16z"/><path d="m834.41 46.66a43.15 43.15 0 0 0 -4.88-11.66l-6.4 2.44a45.92 45.92 0 0 1 5.11 11.63z"/><path d="m851.85 37.68-7-2.15c-2.73 20.31-12.49 30.15-26.43 37.05l5.75 5.09c6.9-4 21.4-12.42 26.78-34.46.72-2.8.79-3.09 1.44-3.45s.93-.36.93-.79-.53-.97-1.47-1.29z"/><path d="m816.17 38.55-6.6 2.5a45.21 45.21 0 0 1 5.43 11.56l6.68-2.5a45.83 45.83 0 0 0 -5.51-11.56z"/><path d="m911.18 26.84a7.36 7.36 0 0 1 -3.18 1.36h-16.06c.72-1.36 1.58-2.8 2-3.87 1-.3 1.8-.44 1.8-1s-1.44-1.36-1.87-1.51l-7.4-2.8c-2.87 8.62-9.54 19.31-19.81 27.58l7.1 4.88a99.66 99.66 0 0 0 13.65-16h18.39a57.17 57.17 0 0 1 -9.48 18.89 62.72 62.72 0 0 1 -22.47 18.74l7.82 5.39a69.73 69.73 0 0 0 19.46-17c7-9.05 10.19-17.38 12.78-24.34a7.57 7.57 0 0 1 3.09-3.5z"/><g fill="#f00"><path d="m65.6 26.49c-12.08 0-15.81 7.12-16.56 7.7-2.23-4.95-7.85-7.7-13.09-7.7-6.74 0-12.16 2.09-15.91 7.78h-.19v-6.55h-17.85v49.28h18.51v-26.68c0-5.13 1.6-8.83 6.27-8.83 5.61 0 6.08 4.17 6.08 8.83v26.68h18.52v-26.68c0-5.13 1.58-8.83 6.26-8.83 5.61 0 6.08 4.17 6.08 8.83v26.68h18.52v-33.8c0-7.98-4.24-16.71-16.64-16.71z"/><path d="m85.17 9.2h18.52v18.8h-18.52z"/><path d="m85.16 33.95h18.52v43.05h-18.52z"/><path d="m161.93 33.95h18.51v43.05h-18.51z"/><path d="m161.94 9.2h18.52v18.8h-18.52z"/><path d="m141.93 26.49c-7.39 0-12.35 2.56-15.81 7.5h-.19v-6.27h-17.86v49.28h18.52v-26c0-7.88 4.2-9.49 7.39-9.49 5.42 0 6.08 4 6.08 9.68v25.81h18.51v-33.8c0-11.3-7.96-16.71-16.64-16.71z"/><path d="m229.24 27.91h-10.66l-22.06 21.45v-40.16h-7.96v67.8h7.96v-18.61l7.48-7.03 16.54 25.64h10.1l-20.57-31.24z"/><path d="m263.58 55.63c0 8.84-4.68 15.38-14.31 15.38-6.08 0-9.82-3.9-9.82-9.88v-33.22h-7.95v32.28c0 10.54 3.92 18 16.64 18 6.91 0 12.34-2.86 15.71-8.93h.15v7.74h7.47v-49.09h-7.93z"/><path d="m283.31 38.26h-.19v-10.35h-7.48v49.09h7.94v-21.84c0-12.44 4.67-19.84 17.49-19.84v-8.55c-8.61-.29-13.93 3.61-17.76 11.49z"/><path d="m344.19 71c-2.52 0-2.52-1.72-2.52-5.52v-25.23c0-11.48-9.44-13.48-18.14-13.48-10.76 0-20 4.28-20.49 16.43h7.96c.38-7.21 5.34-9.3 12.06-9.3 5.06 0 10.76 1.13 10.76 8.16 0 6.07-7.48 5.5-16.26 7.21-8.23 1.62-16.37 4-16.37 15.11 0 9.77 7.2 13.75 16 13.75 6.72 0 12.62-2.37 17-7.59 0 5.32 2.63 7.59 6.74 7.59a10.63 10.63 0 0 0 5.7-1.32v-6.27a6.77 6.77 0 0 1 -2.44.46zm-10.48-11.1c0 4.48-4.3 11.12-14.76 11.12-4.87 0-9.36-1.91-9.36-7.22 0-6 4.49-7.88 9.73-8.83s11.31-1 14.39-3.32z"/></g></svg>