<svg viewBox="0 0 920 125" xmlns="http://www.w3.org/2000/svg"><path d="m453.21 64.05a74.51 74.51 0 0 1 3.79-23.92 57.44 57.44 0 0 1 10.85-19.42 50.3 50.3 0 0 1 17.47-13 55.8 55.8 0 0 1 23.39-4.71 52.89 52.89 0 0 1 17.79 2.69 45.45 45.45 0 0 1 12.65 6.7 39.47 39.47 0 0 1 8.41 8.73 49.44 49.44 0 0 1 5 8.89 43.33 43.33 0 0 1 2.36 7.19c.44 2 .66 3.13.66 3.34h-7.19a34.93 34.93 0 0 0 -4.73-13.14 36.18 36.18 0 0 0 -9-9.87 40.09 40.09 0 0 0 -12-6.21 46 46 0 0 0 -49.55 14.12 52.2 52.2 0 0 0 -9.46 17.39 67.59 67.59 0 0 0 -3.27 21.22 67.59 67.59 0 0 0 3.27 21.22 52.05 52.05 0 0 0 9.46 17.38 45 45 0 0 0 35.59 16.24 36.6 36.6 0 0 0 15.91-3.51 43.65 43.65 0 0 0 13-9.3 46 46 0 0 0 8.9-13.39 45.32 45.32 0 0 0 3.83-15.75h7.19a57.23 57.23 0 0 1 -5.15 19.26 53.79 53.79 0 0 1 -10.61 15.27 46.56 46.56 0 0 1 -14.93 10 45.93 45.93 0 0 1 -18.12 3.6 55.64 55.64 0 0 1 -23.42-4.74 50.15 50.15 0 0 1 -17.47-13 57.39 57.39 0 0 1 -10.83-19.33 74.4 74.4 0 0 1 -3.79-23.95z"/><path d="m585.59 5.77v116.55h-6.2v-116.55z"/><path d="m608 80.37a55.09 55.09 0 0 1 2.53-16.89 42.6 42.6 0 0 1 7.43-14 35.29 35.29 0 0 1 12.04-9.48 40.47 40.47 0 0 1 33 0 35.29 35.29 0 0 1 12 9.52 42.6 42.6 0 0 1 7.43 14 55.39 55.39 0 0 1 2.57 16.85 56.17 56.17 0 0 1 -2.53 17 41.48 41.48 0 0 1 -7.43 14 35.56 35.56 0 0 1 -12.04 9.4 40.47 40.47 0 0 1 -33 0 35.56 35.56 0 0 1 -12.08-9.47 41.48 41.48 0 0 1 -7.43-14 55.85 55.85 0 0 1 -2.49-16.93zm6.2 0a49 49 0 0 0 2.13 14.45 39.12 39.12 0 0 0 6.2 12.32 30.15 30.15 0 0 0 10.12 8.57 31.86 31.86 0 0 0 27.75 0 30.25 30.25 0 0 0 10.12-8.57 39.12 39.12 0 0 0 6.2-12.32 50.27 50.27 0 0 0 0-28.89 39.06 39.06 0 0 0 -6.2-12.33 30.25 30.25 0 0 0 -10.17-8.6 31.86 31.86 0 0 0 -27.75 0 30.15 30.15 0 0 0 -10.12 8.57 39.06 39.06 0 0 0 -6.2 12.33 48.9 48.9 0 0 0 -2.13 14.47z"/><path d="m709 94.41a25.81 25.81 0 0 0 2.61 10.36 24.64 24.64 0 0 0 14.53 12.49 33.28 33.28 0 0 0 10.61 1.63 56 56 0 0 0 8.73-.73 30.52 30.52 0 0 0 8.65-2.69 18 18 0 0 0 6.61-5.47 14.52 14.52 0 0 0 2.62-8.9q0-7-4.25-10.61a29.8 29.8 0 0 0 -10.69-5.55 108.17 108.17 0 0 0 -13.88-3.18 72.42 72.42 0 0 1 -13.87-3.67 28.35 28.35 0 0 1 -10.67-6.94q-4.25-4.49-4.24-13.14a18.3 18.3 0 0 1 2.77-10.37 20.71 20.71 0 0 1 7.07-6.64 32.3 32.3 0 0 1 9.71-3.51 56.19 56.19 0 0 1 10.78-1.06 49 49 0 0 1 12.24 1.47 26.49 26.49 0 0 1 9.87 4.73 22.56 22.56 0 0 1 6.53 8.37 28.67 28.67 0 0 1 2.37 12.24h-6.2a23.29 23.29 0 0 0 -1.9-9.8 17.06 17.06 0 0 0 -5.22-6.61 22.8 22.8 0 0 0 -7.92-3.76 38 38 0 0 0 -9.79-1.22 46.37 46.37 0 0 0 -8.57.81 24.83 24.83 0 0 0 -7.76 2.78 17.46 17.46 0 0 0 -5.63 5.06 12.62 12.62 0 0 0 -2.2 7.51 12.75 12.75 0 0 0 2.45 8.16 17.5 17.5 0 0 0 6.44 5 44.62 44.62 0 0 0 9 3l10 2.28c4.13.77 8 1.66 11.67 2.7a33 33 0 0 1 9.53 4.24 19.29 19.29 0 0 1 6.28 6.94 22.5 22.5 0 0 1 2.29 10.77q0 6.86-3.1 11.26a23.84 23.84 0 0 1 -7.84 7.1 33.25 33.25 0 0 1 -10.53 3.76 62.6 62.6 0 0 1 -11.34 1.06 45.19 45.19 0 0 1 -13.3-1.88 30.18 30.18 0 0 1 -10.7-5.71 27.32 27.32 0 0 1 -7.18-9.39 31.47 31.47 0 0 1 -2.77-12.89z"/><path d="m793.38 81.19v1a49.55 49.55 0 0 0 2 14 36 36 0 0 0 5.77 11.81 27.43 27.43 0 0 0 9.66 8 29.5 29.5 0 0 0 13.5 2.94q12.6 0 20-6.61t10.15-18.36h6.2q-2.77 14.68-12 22.52t-24.4 7.84a37 37 0 0 1 -16.26-3.4 32.91 32.91 0 0 1 -11.59-9.14 38.73 38.73 0 0 1 -6.94-13.71 61.4 61.4 0 0 1 -2.29-17.08 59.73 59.73 0 0 1 2.36-16.89 42.57 42.57 0 0 1 7.1-14.2 35.22 35.22 0 0 1 11.84-9.8 36 36 0 0 1 16.73-3.67 35.48 35.48 0 0 1 15.59 3.27 32.68 32.68 0 0 1 11.34 8.89 39.61 39.61 0 0 1 6.94 13.06 52.39 52.39 0 0 1 2.36 15.92c0 .54 0 1.17-.08 1.87s-.08 1.28-.08 1.72zm61.7-5.39a50.19 50.19 0 0 0 -2.29-13 32.17 32.17 0 0 0 -5.79-10.75 29.17 29.17 0 0 0 -9.33-7.43 27.36 27.36 0 0 0 -12.52-2.77 29.28 29.28 0 0 0 -13.26 2.86 29.77 29.77 0 0 0 -9.65 7.5 33.44 33.44 0 0 0 -6.06 10.86 50.94 50.94 0 0 0 -2.62 12.73z"/><path d="m913.19 43.81h-18.28v58.6a22.64 22.64 0 0 0 1.14 8 9.1 9.1 0 0 0 3.51 4.49 12.39 12.39 0 0 0 5.71 1.88 58 58 0 0 0 7.75.16v5.39a57.75 57.75 0 0 1 -9.22-.08 18.57 18.57 0 0 1 -7.92-2.45 14.37 14.37 0 0 1 -5.46-6.12q-2.05-4.08-1.72-11.26v-58.61h-15.5v-5.39h15.5v-26.12h6.21v26.12h18.28z"/><g fill="#f00"><path d="m79.78 60.69c-14.78 0-19.33 8.71-20.25 9.41-2.73-6-9.61-9.41-16-9.41-8.24 0-14.87 2.55-19.45 9.52h-.23v-8h-21.85v60.27h22.64v-32.65c0-6.27 1.95-10.8 7.67-10.8 6.85 0 7.43 5.1 7.43 10.8v32.63h22.65v-32.63c0-6.27 1.94-10.8 7.66-10.8 6.86 0 7.43 5.1 7.43 10.8v32.63h22.65v-41.34c0-9.76-5.13-20.43-20.35-20.43z"/><path d="m103.71 39.55h22.65v22.99h-22.65z"/><path d="m103.71 69.81h22.65v52.65h-22.65z"/><path d="m197.6 39.55h22.64v22.99h-22.64z"/><path d="m197.59 69.81h22.64v52.65h-22.64z"/><path d="m173.12 60.69c-9 0-15.09 3.13-19.32 9.17h-.24v-7.67h-21.83v60.27h22.64v-31.82c0-9.64 5.14-11.61 9-11.61 6.63 0 7.43 4.87 7.43 11.84v31.59h22.64v-41.34c.04-13.82-9.69-20.43-20.32-20.43z"/><path d="m279.9 62.43h-13.03l-26.98 26.23v-49.11h-9.73v82.91h9.73v-22.76l9.15-8.6 20.23 31.36h12.35l-25.15-38.21z"/><path d="m321.9 96.33c0 10.8-5.72 18.8-17.5 18.8-7.43 0-12-4.76-12-12.07v-40.63h-9.72v39.47c0 12.89 4.8 21.95 20.35 21.95 8.46 0 15.09-3.49 19.22-10.92h.22v9.53h9.15v-60h-9.72z"/><path d="m346 75.08h-.23v-12.65h-9.15v60h9.71v-26.68c0-15.22 5.72-24.26 21.4-24.26v-10.49c-10.5-.32-17.02 4.45-21.73 14.08z"/><path d="m420.48 115.14c-3.08 0-3.08-2.09-3.08-6.74v-30.88c0-14-11.55-16.49-22.19-16.49-13.15 0-24.46 5.23-25 20.1h9.72c.46-8.83 6.52-11.38 14.75-11.38 6.17 0 13.15 1.38 13.15 10 0 7.42-9.15 6.72-19.89 8.82-10.06 2-20 4.88-20 18.47 0 12 8.8 16.82 19.55 16.82 8.22 0 15.44-2.89 20.8-9.28 0 6.51 3.22 9.28 8.25 9.28a13.08 13.08 0 0 0 7-1.61v-7.67a8.12 8.12 0 0 1 -3.06.56zm-12.81-13.59c0 5.47-5.26 13.59-18.06 13.59-5.95 0-11.44-2.33-11.44-8.82 0-7.31 5.49-9.64 11.89-10.8s13.85-1.28 17.61-4.07z"/></g></svg>