<svg viewBox="0 0 920 101" xmlns="http://www.w3.org/2000/svg"><g fill="#f00"><path d="m80.54 35.64c-14.91 0-19.53 8.8-20.45 9.5-2.76-6.1-9.69-9.5-16.17-9.5-8.31 0-15 2.58-19.64 9.61h-.22v-8.08h-22.06v60.83h22.87v-32.93c0-6.33 1.95-10.9 7.73-10.9 6.93 0 7.51 5.15 7.51 10.9v32.93h22.89v-32.93c0-6.33 2-10.9 7.73-10.9 6.94 0 7.51 5.15 7.51 10.9v32.93h22.88v-41.72c-.03-9.85-5.23-20.64-20.58-20.64z"/><path d="m104.7 44.85h22.87v53.16h-22.87z"/><path d="m104.71 14.3h22.87v23.21h-22.87z"/><path d="m199.51 44.85h22.87v53.16h-22.87z"/><path d="m199.51 14.3h22.87v23.21h-22.87z"/><path d="m174.8 35.64c-9.13 0-15.25 3.17-19.51 9.26h-.29v-7.73h-22v60.83h22.85v-32.12c0-9.72 5.2-11.71 9.13-11.71 6.7 0 7.5 4.91 7.5 12v31.83h22.87v-41.72c0-13.96-9.81-20.64-20.55-20.64z"/><path d="m282.62 37.39h-13.16l-27.25 26.5v-49.59h-9.82v83.72h9.82v-22.98l9.24-8.69 20.43 31.67h12.47l-25.4-38.57z"/><path d="m325 71.64c0 10.89-5.77 19-17.66 19-7.51 0-12.14-4.82-12.14-12.2v-41h-9.81v39.82c0 13 4.85 22.16 20.56 22.16 8.54 0 15.23-3.52 19.4-11h.23v9.58h9.23v-60.61h-9.81z"/><path d="m349.4 50.18h-.24v-12.78h-9.23v60.6h9.8v-27c0-15.36 5.78-24.5 21.6-24.5v-10.5c-10.62-.36-17.21 4.45-21.93 14.18z"/><path d="m424.59 90.63c-3.13 0-3.13-2.11-3.13-6.8v-31.19c0-14.19-11.66-16.65-22.4-16.65-13.28 0-24.71 5.29-25.29 20.29h9.81c.47-8.91 6.59-11.49 14.9-11.49 6.24 0 13.28 1.4 13.28 10.08 0 7.49-9.24 6.8-20.09 8.91-10.16 2-20.21 4.92-20.21 18.65 0 12.07 8.89 17 19.75 17 8.3 0 15.58-2.93 21-9.37 0 6.56 3.24 9.37 8.32 9.37a13.22 13.22 0 0 0 7-1.63v-7.75a8.45 8.45 0 0 1 -2.94.58zm-12.95-13.73c0 5.53-5.31 13.73-18.23 13.73-6 0-11.57-2.35-11.57-8.92 0-7.38 5.56-9.72 12-10.9s14-1.29 17.77-4.09z"/></g><path d="m773 34.86 18.8-18.79 19.67-12.32v-1.75h-57.27v1.62l13.46 12.32-28.95 30v-30l10.66-12.32v-1.62h-64v1.62l14.22 12.32v67.94l-10.68 9.25-10.77-9.25-26.92-67.81 14.09-12.32v-1.75h-73.15v1.75l14.09 12.32-27.42 67.81-11 9.05-10.45-9.05v-67.81l14.21-12.32v-1.75h-64v1.75l10.67 12.32v25.14h-26.17v-25.14l10.68-12.32v-1.75h-64v1.75l14.23 12.32v67.81l-14.24 12.31v1.54h64v-1.54l-10.67-12.31v-27h26.17v27l-10.67 12.31v1.54h114.16v-1.53l-13.45-12.32 3.55-10.88h23.49l3.66 10.88-12.42 12.32v1.53h122.79v-1.54l-10.66-12.31v-16.88l8.5-7.75 15.88 24.64-8.89 12.3v1.54h64v-1.54l-14.2-12.31zm-156.84 24.26 7-22.1 7.49 22.1z"/><path d="m864-.43c-30.73 0-52.82 19-52.82 50.28s22.09 50.29 52.82 50.29 53-19 53-50.29-22.1-50.28-53-50.28zm12.1 57.77c0 18.29-5.46 23.49-12.06 23.49s-12.04-5.2-12.04-23.49v-15c0-18.14 5.32-23.34 12-23.34s12.1 5.2 12.1 23.35z"/></svg>