<svg viewBox="0 0 920 147" xmlns="http://www.w3.org/2000/svg"><path d="m447.13 2h7v107.81h64.57v6.1h-71.57z"/><path d="m540 18.45v-16.45h6.09v16.45zm0 97.46v-82h6.09v82z"/><path d="m573.14 2h5.91v49.27h.34a26.89 26.89 0 0 1 5-8.36 31.59 31.59 0 0 1 7.34-6.1 33.3 33.3 0 0 1 8.94-3.64 40.76 40.76 0 0 1 9.9-1.19 36.4 36.4 0 0 1 15.76 3.18 31.16 31.16 0 0 1 11.09 8.76 37.51 37.51 0 0 1 6.66 13 55.42 55.42 0 0 1 2.16 16c0 9.79-1.31 17.64-4 23.56a37.21 37.21 0 0 1 -9.65 13.52 28.64 28.64 0 0 1 -11.66 6.2 43.16 43.16 0 0 1 -10.41 1.54 33.3 33.3 0 0 1 -13.83-2.56 34.91 34.91 0 0 1 -9.33-6 29 29 0 0 1 -5.57-6.77 25.37 25.37 0 0 1 -2.39-5h-.35v18.32h-5.91zm37.37 110.54a25.48 25.48 0 0 0 13.77-3.54 28 28 0 0 0 9.11-9.16 41.6 41.6 0 0 0 5.12-12.74 63.2 63.2 0 0 0 1.59-14.1 49.16 49.16 0 0 0 -1.83-13.26 33.58 33.58 0 0 0 -5.57-11.37 29.39 29.39 0 0 0 -9.28-8.08 26.62 26.62 0 0 0 -12.86-3 33.23 33.23 0 0 0 -13.94 2.71 26.71 26.71 0 0 0 -9.72 7.52 31.69 31.69 0 0 0 -5.75 11.32 51 51 0 0 0 -1.93 14.22 60.11 60.11 0 0 0 1.78 14.68 39.3 39.3 0 0 0 5.52 12.68 29 29 0 0 0 9.67 8.88 28.18 28.18 0 0 0 14.35 3.24z"/><path d="m672.82 52.07h.45a20.33 20.33 0 0 1 4-7.52 28.61 28.61 0 0 1 7.17-6 36.71 36.71 0 0 1 9.39-3.93 37.84 37.84 0 0 1 10.75-1.19v6.09a28 28 0 0 0 -10.92 1 26.73 26.73 0 0 0 -11.72 7q-2.22 2.38-3.93 4.61a21.16 21.16 0 0 0 -2.79 5 34.78 34.78 0 0 0 -1.76 6.09 49.47 49.47 0 0 0 -.79 8v44.68h-6.1v-82h6.1v18.17z"/><path d="m768.68 99.63h-.34a25.26 25.26 0 0 1 -4.16 6.94 31 31 0 0 1 -6.6 5.8 32.77 32.77 0 0 1 -8.87 4 38.42 38.42 0 0 1 -10.87 1.42c-8.7 0-15.47-1.87-20.25-5.68s-7.17-9.62-7.17-17.47a20.33 20.33 0 0 1 10.12-18.89 30.53 30.53 0 0 1 9.73-3.75 99.7 99.7 0 0 1 10.3-1.59l9.39-.8a52.84 52.84 0 0 0 10.3-1.54 13.55 13.55 0 0 0 5.68-2.84 8 8 0 0 0 2.39-4.72 43 43 0 0 0 .46-7.17 16.08 16.08 0 0 0 -1.25-6.2 13.7 13.7 0 0 0 -4-5.12 20.24 20.24 0 0 0 -7-3.53 37.45 37.45 0 0 0 -10.54-1.27 27.9 27.9 0 0 0 -17.81 5.41c-4.49 3.64-7 9.1-7.39 16.45h-6.1q.6-13.57 8.71-20.31c5.36-4.51 13-6.79 22.89-6.79s17.1 1.94 21.7 5.81a19.2 19.2 0 0 1 6.72 15.21v47.68c0 1.19 0 2.33.06 3.53a10.75 10.75 0 0 0 .57 3.18 5.24 5.24 0 0 0 1.59 2.34 4.88 4.88 0 0 0 3.19.85 32.23 32.23 0 0 0 4.49-.46v5.12a18 18 0 0 1 -5 .63 14.73 14.73 0 0 1 -5.8-1 7.42 7.42 0 0 1 -3.25-2.56 10 10 0 0 1 -1.54-3.76 24 24 0 0 1 -.4-4.72zm0-30.33a11.29 11.29 0 0 1 -6.77 3.64 80.44 80.44 0 0 1 -10.13 1.43l-10.18 1c-3 .34-6 .8-8.94 1.37a25.93 25.93 0 0 0 -8.08 3 16.27 16.27 0 0 0 -5.8 5.68 17.6 17.6 0 0 0 -2.22 9.33c0 6.1 1.93 10.53 5.75 13.49s9.1 4.38 15.81 4.38a31 31 0 0 0 16.45-3.76 29.54 29.54 0 0 0 9.28-8.59 26.57 26.57 0 0 0 4-9.38 41.17 41.17 0 0 0 .85-6.15v-15.44z"/><path d="m803.27 52.07h.45a20.33 20.33 0 0 1 4-7.52 28.44 28.44 0 0 1 7.17-6 36.71 36.71 0 0 1 9.39-3.93 37.8 37.8 0 0 1 10.75-1.19v6.09a28 28 0 0 0 -10.92 1 26.78 26.78 0 0 0 -11.72 7c-1.48 1.59-2.78 3.13-3.92 4.61a20.81 20.81 0 0 0 -2.79 5 33.13 33.13 0 0 0 -1.68 5.98 49.48 49.48 0 0 0 -.8 8v44.79h-6.09v-82h6.09v18.17z"/><path d="m844.46 33.92h7.17l30.45 74.81 28-74.81h6.92l-35.1 90.74c-1.71 4-3.25 7.51-4.72 10.47a19 19 0 0 1 -4.84 6.48 15 15 0 0 1 -7.57 3.13 89.09 89.09 0 0 1 -11.55.57v-5.23a39.69 39.69 0 0 0 10.19-1 16.16 16.16 0 0 0 6.89-4.22 20.63 20.63 0 0 0 3.7-6.49c1.25-3.13 2.84-7.39 4.78-12.85z"/><g fill="#f00"><path d="m78 55.65c-14.39 0-18.89 8.48-19.74 9.16-2.73-5.92-9.44-9.16-15.7-9.16-8 0-14.51 2.5-19 9.27h-.18v-7.79h-21.38v58.87h22.14v-31.9c0-6.1 1.88-10.53 7.51-10.53 6.72 0 7.28 5 7.28 10.53v31.9h22.14v-31.9c0-6.1 1.88-10.53 7.52-10.53 6.71 0 7.22 5 7.22 10.53v31.9h22.19v-40.38c-.19-9.56-5.26-19.97-20-19.97z"/><path d="m101.28 35h22.13v22.47h-22.13z"/><path d="m101.28 64.53h22.13v51.43h-22.13z"/><path d="m192.99 35h22.13v22.47h-22.13z"/><path d="m192.99 64.53h22.13v51.43h-22.13z"/><path d="m169.09 55.65c-8.82 0-14.73 3.07-18.89 8.94h-.2v-7.46h-21.36v58.87h22.14v-31.11c0-9.38 5-11.32 8.82-11.32 6.48 0 7.28 4.72 7.28 11.55v30.88h22.12v-40.38c0-13.53-9.55-19.97-19.91-19.97z"/><path d="m273.32 57.36h-12.74l-26.35 25.64v-48h-9.5v81h9.5v-22.29l8.94-8.36 19.83 30.65h12l-24.55-37.36z"/><path d="m314.34 90.4c0 10.53-5.57 18.38-17.06 18.38-7.28 0-11.72-4.67-11.72-11.78v-39.64h-9.51v38.51c0 12.58 4.67 21.45 19.86 21.45a20.12 20.12 0 0 0 18.77-10.64h.23v9.32h8.93v-58.64h-9.5z"/><path d="m337.89 69.7h-.22v-12.34h-8.94v58.64h9.5v-26.1c0-14.85 5.58-23.67 20.88-23.67v-10.23c-10.29-.35-16.67 4.27-21.22 13.7z"/><path d="m410.6 108.78c-3 0-3-2-3-6.6v-30.18c0-13.71-11.26-16.1-21.67-16.1-12.85 0-23.89 5.12-24.47 19.63h9.54c.45-8.59 6.37-11.09 14.39-11.09 6 0 12.86 1.36 12.86 9.73 0 7.22-8.94 6.54-19.4 8.59-9.84 1.93-19.57 4.78-19.57 18 0 11.67 8.59 16.46 19.11 16.46a25.54 25.54 0 0 0 20.31-9c0 6.37 3.13 9 8.08 9a12.81 12.81 0 0 0 6.83-1.6v-7.51a7.91 7.91 0 0 1 -3.01.67zm-12.51-13.25c0 5.34-5.13 13.25-17.64 13.25-5.81 0-11.15-2.27-11.15-8.59 0-7.11 5.34-9.39 11.6-10.52s13.54-1.25 17.18-4z"/></g></svg>