<svg viewBox="0 0 920 101" xmlns="http://www.w3.org/2000/svg"><path d="m578.2 18.22 13.98-12.1v-1.75h-67.03l-13.72 38.43-13.99-38.43h-66.15v1.75l13.99 12.1v66.66l-13.99 12.09v1.51h52.8v-1.51l-12.23-12.09v-53.31l25.58 66.91h16.35l25.84-66.91v53.31l-12.23 12.09v1.51h64.78v-1.51l-13.98-12.09z"/><path d="m641.63 2c-30.22 0-51.91 18.71-51.91 49.42s21.69 49.43 51.91 49.43 52-18.72 52-49.43-21.63-49.42-52-49.42zm11.86 56.79c0 18-5.37 23.09-11.86 23.09s-11.85-5.12-11.85-23.09v-14.74c0-17.84 5.23-23 11.85-23s11.86 5.12 11.86 23z"/><path d="m802.28 18.1 13.99-12.11v-1.62h-54.68v1.62l13.98 12.11v32.08l-37.94-45.81h-46.19v1.62l13.86 12.11v66.78l-13.86 12.1v1.5h54.68v-1.5l-13.99-12.1v-32.21l37.95 45.81h40.81v-1.5l-8.61-11.35z"/><path d="m865 2c-30.25 0-52 18.71-52 49.42s21.71 49.43 51.92 49.43 52-18.72 52-49.43-21.63-49.42-51.92-49.42zm11.8 56.79c0 18-5.36 23.09-11.84 23.09s-11.86-5.12-11.86-23.09v-14.74c0-17.84 5.24-23 11.86-23s11.84 5.12 11.84 23z"/><g fill="#f00"><path d="m79.2 37.47c-14.66 0-19.19 8.64-20.1 9.33-2.71-6-9.54-9.33-15.89-9.33-8.21 0-14.76 2.53-19.31 9.44h-.22v-7.91h-21.68v59.77h22.47v-32.39c0-6.21 1.94-10.71 7.61-10.71 6.8 0 7.38 5.06 7.38 10.71v32.39h22.48v-32.39c0-6.21 1.92-10.71 7.6-10.71 6.81 0 7.37 5.06 7.37 10.71v32.39h22.49v-41c0-9.71-5.12-20.3-20.2-20.3z"/><path d="m102.95 16.48h22.48v22.82h-22.48z"/><path d="m102.95 46.51h22.48v52.26h-22.48z"/><path d="m196.14 16.48h22.47v22.82h-22.47z"/><path d="m196.13 46.51h22.47v52.26h-22.47z"/><path d="m171.84 37.47c-9 0-15 3.1-19.18 9.09h-.23v-7.56h-21.67v59.77h22.47v-31.58c0-9.57 5.1-11.52 9-11.52 6.59 0 7.37 4.83 7.37 11.75v31.35h22.4v-41c0-13.77-9.61-20.3-20.16-20.3z"/><path d="m277.82 39.19h-12.93l-26.78 26.03v-48.74h-9.66v82.29h9.66v-22.59l9.08-8.53 20.08 31.12h12.25l-24.96-37.92z"/><path d="m319.5 72.84c0 10.72-5.68 18.66-17.36 18.66-7.38 0-11.93-4.73-11.93-12v-40.31h-9.64v39.17c0 12.8 4.76 21.79 20.2 21.79 8.39 0 15-3.46 19.07-10.83h.22v9.45h9.08v-59.58h-9.64z"/><path d="m343.46 51.75h-.23v-12.56h-9.08v59.58h9.63v-26.51c0-15.1 5.68-24.08 21.24-24.08v-10.38c-10.45-.34-16.92 4.39-21.56 13.95z"/><path d="m417.35 91.51c-3.06 0-3.06-2.08-3.06-6.69v-30.65c0-13.94-11.46-16.37-22-16.37-13 0-24.28 5.19-24.86 20h9.65c.46-8.76 6.47-11.29 14.64-11.29 6.13 0 13.05 1.36 13.05 9.9 0 7.37-9.08 6.68-19.74 8.75-10 2-19.86 4.85-19.86 18.34 0 11.86 8.73 16.7 19.4 16.7 8.16 0 15.33-2.88 20.65-9.22 0 6.46 3.2 9.22 8.18 9.22a13 13 0 0 0 6.93-1.61v-7.66a8 8 0 0 1 -2.98.58zm-12.71-13.51c0 5.43-5.22 13.49-17.93 13.49-5.9 0-11.36-2.31-11.36-8.76 0-7.26 5.46-9.56 11.81-10.72s13.74-1.27 17.48-4z"/></g></svg>